<?xml version="1.0" encoding="UTF-8"?>
<svg xmlns="http://www.w3.org/2000/svg" viewBox="0 0 399.92 327.02">
  <g id="Layer_2" data-name="Layer 2">
    <path d="m200.26,85.59l-76.13-24.57v130.86l76.13,29.02,76.13-29.02V61.02l-76.13,24.57Zm41.3,87.94l-41.3,15.74-41.3-15.74v-70.99l41.3,13.33,41.3-13.33v70.99Z"/>
    <polygon points="290.74 54.11 321.92 37.65 321.92 175.65 290.74 195.9 290.74 54.11"/>
    <polygon points="366.25 26.57 399.92 12.16 399.92 288.29 366.25 327.02 366.25 26.57"/>
    <polygon points="33.67 25.77 0 0 0 286.79 33.67 327.02 33.67 25.77"/>
    <polygon points="321.92 37.65 366.25 132.9 366.25 180.9 321.92 120.23 321.92 37.65"/>
    <polygon points="43.01 144.4 43.01 27.9 114.8 61.02 99.3 87.4 106.26 173.22 75.76 161.15 75.76 101.15 69.26 92.65 69.26 161.15 43.01 144.4"/>
    <polygon points="46.92 308.18 46.92 220.34 101.53 220.34 87.88 244.27 67.02 243.88 67.02 259.58 95.84 259.58 82 279.86 66.45 279.86 66.64 326.46 46.92 308.18"/>
    <polygon points="168.27 327.02 168.27 220.9 217.77 248.9 205.77 264.9 221.27 327.02 194.77 327.02 194.77 279.4 189.57 279.9 189.57 327.02 168.27 327.02"/>
    <polygon points="287.26 222.02 234.26 222.02 234.26 327.02 274.76 327.02 287.11 306.9 255.41 306.9 256.38 240.9 275.59 240.9 287.26 222.02"/>
    <polygon points="349.49 220.9 296.49 220.9 296.49 325.9 336.99 325.9 349.33 305.77 317.63 305.77 318.61 239.77 337.81 239.77 349.49 220.9"/>
    <polygon points="316.01 264.21 353.48 264.21 337.81 283.71 315.64 283.71 316.01 264.21"/>
  </g>
  <g id="Layer_3" data-name="Layer 3">
    <path d="m108.95,220.9v86.05l45,20.07v-106.12h-45Zm28.48,73l-14.63-6.5v-47.5h14.63v54Z"/>
  </g>
</svg>